<svg width="852" height="380" viewBox="0 0 852 380" fill="none" xmlns="http://www.w3.org/2000/svg">
<rect width="852" height="379.287" transform="translate(0 0.286621)" fill="black"/>
<path d="M296.017 150.015C273.47 150.015 258.339 163.142 258.339 188.608V206.765C260.628 205.64 263.141 205.043 265.692 205.018C268.247 205.018 270.769 205.601 273.065 206.722V188.523C273.065 172.007 282.186 163.526 296.08 163.526C309.975 163.526 318.968 172.007 318.968 188.523V228.204H333.651V188.523C333.694 162.908 318.563 150.015 296.017 150.015Z" fill="white"/>
<path d="M341.685 190.079C341.685 166.914 358.734 149.93 382.751 149.93C406.768 149.93 423.518 166.978 423.518 190.079V195.471H357.114C359.245 209.067 369.474 216.632 382.687 216.632C392.575 216.632 399.522 213.542 403.998 206.914H420.194C414.333 221.107 400.439 230.228 382.687 230.228C358.67 230.228 341.685 213.244 341.685 190.079ZM408.068 182.364C405.127 170.153 395.111 163.526 382.751 163.526C370.391 163.526 360.524 170.324 357.583 182.364H408.068Z" fill="white"/>
<path d="M431.36 190.079C431.36 166.935 448.409 149.951 472.426 149.951C496.443 149.951 513.492 166.999 513.492 190.079C513.492 213.158 496.443 230.228 472.426 230.228C448.409 230.228 431.36 213.243 431.36 190.079ZM498.681 190.079C498.681 174.65 488.175 163.526 472.426 163.526C456.678 163.526 446.193 174.65 446.193 190.079C446.193 205.508 456.677 216.632 472.405 216.632C488.132 216.632 498.681 205.529 498.681 190.079Z" fill="white"/>
<path d="M597.37 243.398H599.075C608.494 243.398 612.032 239.136 612.032 228.481V152.487H626.715V227.501C626.715 246.339 619.299 256.057 600.46 256.057H597.37V243.398Z" fill="white"/>
<path d="M590.039 235.556H575.356V217.463H538.169C534.774 217.581 531.412 216.758 528.456 215.084C525.5 213.411 523.064 210.952 521.419 207.98C520.083 205.186 519.562 202.073 519.916 198.996C520.27 195.92 521.486 193.007 523.422 190.59L556.795 146.797C559.101 143.684 562.33 141.377 566.023 140.203C569.715 139.03 573.684 139.05 577.364 140.26C581.045 141.471 584.25 143.81 586.526 146.946C588.801 150.082 590.03 153.855 590.039 157.729V204.442H601.057V217.463H590.039V235.556ZM535.633 198.603C535.194 199.228 534.956 199.971 534.951 200.734C534.948 201.219 535.042 201.7 535.226 202.148C535.41 202.597 535.682 203.004 536.025 203.347C536.368 203.69 536.775 203.962 537.224 204.146C537.672 204.33 538.153 204.424 538.638 204.421H575.356V157.367C575.383 156.575 575.15 155.796 574.692 155.149C574.234 154.503 573.576 154.024 572.82 153.787C572.383 153.663 571.932 153.598 571.478 153.595C570.904 153.595 570.339 153.737 569.833 154.008C569.327 154.28 568.896 154.672 568.579 155.151L535.633 198.603Z" fill="white"/>
<path d="M619.448 121.31C616.96 121.305 614.527 122.039 612.457 123.418C610.386 124.797 608.772 126.759 607.817 129.056C606.862 131.354 606.61 133.882 607.092 136.323C607.575 138.763 608.771 141.005 610.528 142.766C612.286 144.526 614.526 145.726 616.966 146.213C619.405 146.7 621.935 146.452 624.233 145.501C626.532 144.55 628.497 142.939 629.879 140.87C631.262 138.802 632 136.371 632 133.883C632 130.552 630.678 127.357 628.325 125C625.972 122.642 622.779 121.315 619.448 121.31Z" fill="white"/>
<path d="M265.052 209.685C262.325 209.687 259.675 210.586 257.508 212.242L243.699 202.801C244.006 201.698 244.164 200.558 244.168 199.413C244.197 196.925 243.487 194.485 242.127 192.401C240.767 190.318 238.818 188.686 236.528 187.713C234.239 186.739 231.712 186.468 229.268 186.933C226.824 187.399 224.573 188.58 222.802 190.328C221.031 192.075 219.819 194.309 219.32 196.746C218.821 199.184 219.058 201.715 220 204.017C220.942 206.32 222.547 208.291 224.612 209.679C226.676 211.068 229.107 211.811 231.595 211.816C234.322 211.817 236.974 210.918 239.139 209.258L252.905 218.763C252.28 220.986 252.28 223.338 252.905 225.561L239.096 235.002C236.943 233.35 234.308 232.452 231.595 232.444C229.106 232.44 226.672 233.174 224.601 234.554C222.53 235.934 220.915 237.898 219.961 240.196C219.007 242.494 218.756 245.024 219.241 247.465C219.725 249.906 220.923 252.148 222.683 253.908C224.442 255.668 226.685 256.866 229.126 257.35C231.567 257.835 234.096 257.584 236.395 256.63C238.693 255.675 240.656 254.06 242.036 251.99C243.416 249.919 244.151 247.485 244.147 244.996C244.146 243.866 243.995 242.741 243.699 241.65L257.508 232.21C259.675 233.866 262.325 234.764 265.052 234.767C268.224 234.541 271.192 233.121 273.358 230.794C275.525 228.467 276.73 225.405 276.73 222.226C276.73 219.046 275.525 215.985 273.358 213.658C271.192 211.331 268.224 209.911 265.052 209.685Z" fill="white"/>
</svg>
